<svg width="94" height="26" viewBox="0 0 94 26" fill="none" xmlns="http://www.w3.org/2000/svg">
<path fill-rule="evenodd" clip-rule="evenodd" d="M92.4 9.2C91.4 7.5 89.9 6.1 88.1 5.2C86.3 4.2 84.2 3.8 82.1 3.8C79.9 3.8 77.9 4.3 76.1 5.2C74.3 6.1 72.8 7.5 71.8 9.2C70.8 10.9 70.3 12.8 70.3 14.9C70.3 17 70.8 18.9 71.8 20.6C72.9 22.3 74.3 23.6 76.1 24.6C77.9 25.6 80 26 82.1 26C84.3 26 86.3 25.6 88.1 24.6C89.9 23.7 91.4 22.3 92.4 20.6C93.5 18.9 94 16.9 94 14.9C94 12.8 93.5 10.9 92.4 9.2ZM84.4 17.4C83.8 17.9 83.2 18.3 82.1 18.3C81.1 18.3 80.4 18 79.8 17.5C79.3 17 78.9 16.2 78.9 15C78.9 13.7 79.3 13 79.8 12.5C80.4 12 81 11.7 82.1 11.7C83.2 11.7 83.8 12 84.4 12.6C84.9 13.1 85.3 13.9 85.3 15.1C85.3 16.2 84.9 16.9 84.4 17.4Z" fill="#131618"/>
<path d="M66.8 4.30001C64.5 3.40001 61.8 4.50001 60.9 6.70001L60.3 8.10001L58.4 14.5L56.5 8.20001L56 6.70001C55 4.50001 52.4 3.40001 50 4.30001C47.6 5.20001 46.5 7.80001 47.5 10L53 23.1C53.7 24.8 55.5 25.9 57.3 25.8H59.7C61.5 25.8 63.2 24.8 63.9 23.1L69.3 10C70.3 7.70001 69.2 5.20001 66.8 4.30001Z" fill="#131618"/>
<path fill-rule="evenodd" clip-rule="evenodd" d="M45.1 9.2C44.1 7.5 42.6 6.1 40.8 5.2C39 4.2 36.9 3.8 34.8 3.8C32.6 3.8 30.6 4.3 28.8 5.2C27 6.1 25.5 7.5 24.5 9.2C23.5 10.9 23 12.8 23 14.9C23 17 23.5 18.9 24.5 20.6C25.6 22.3 27 23.6 28.8 24.6C30.6 25.6 32.7 26 34.8 26C37 26 39 25.6 40.8 24.6C42.6 23.7 44.1 22.3 45.1 20.6C46.2 18.9 46.7 16.9 46.7 14.9C46.7 12.8 46.2 10.9 45.1 9.2ZM37.1 17.4C36.5 17.9 35.9 18.3 34.8 18.3C33.8 18.3 33.1 18 32.5 17.5C32 17 31.6 16.2 31.6 15C31.6 13.7 32 13 32.5 12.5C33.1 12 33.7 11.7 34.8 11.7C35.9 11.7 36.5 12 37.1 12.6C37.6 13.1 38 13.9 38 15.1C38 16.1 37.6 16.9 37.1 17.4Z" fill="#131618"/>
<path d="M21.2 18.2L17.8 13.9L20.7 10.7C23 8.4 22 3.9 17.2 3.9H16.2C15.4 3.9 13.8 4.2 12.5 5.5L9.5 9.1V4.3C9.5 1.9 7.5 0 5.1 0H4.4C2 0 0 1.9 0 4.3V21.6C0 24 2 25.9 4.4 25.9H5.1C7.5 25.9 9.5 24 9.5 21.6V19L13.3 24.3C14.8 26.1 17.6 26.4 19.5 25L20.4 24.2C22.7 21.9 22.5 20.1 21.2 18.2Z" fill="#131618"/>
</svg>
